<?xml version="1.0" encoding="UTF-8" standalone="no" ?>
<!DOCTYPE svg PUBLIC "-//W3C//DTD SVG 1.1//EN" "http://www.w3.org/Graphics/SVG/1.1/DTD/svg11.dtd">
<svg xmlns="http://www.w3.org/2000/svg" xmlns:xlink="http://www.w3.org/1999/xlink" version="1.1" width="640" height="640" viewBox="0 0 640 640" xml:space="preserve">
<desc>Created with Fabric.js 5.3.0</desc>
<defs>
</defs>
<g transform="matrix(1 0 0 1 80.2826855124 320)" id="i_Spkho3V3TzpW8Sd_SB_"  >
<path style="stroke: rgb(0,0,0); stroke-width: 1; stroke-dasharray: none; stroke-linecap: butt; stroke-dashoffset: 0; stroke-linejoin: miter; stroke-miterlimit: 4; fill: rgb(255,255,255); fill-opacity: 0; fill-rule: nonzero; opacity: 1;"  transform=" translate(0, 0)" d="M 0 0" stroke-linecap="round" />
</g>
<g transform="matrix(1 0 0 1 210.6949352179 251.7785630153)" id="uUmn2C6HtBmLqCUPNIR9F"  >
<path style="stroke: rgb(255,255,255); stroke-width: 5; stroke-dasharray: none; stroke-linecap: butt; stroke-dashoffset: 0; stroke-linejoin: miter; stroke-miterlimit: 4; fill: none; fill-rule: nonzero; opacity: 1;"  transform=" translate(0, 0)" d="M -109.30506 64.07538 C -109.30506 64.07538 -107.7974 -1.5076600000000013 -27.1378 -0.7538300000000078 C 53.5218 -7.771561172376096e-15 67.84453 -0.7538300000000078 67.84453 -0.7538300000000078 C 67.84453 -0.7538300000000078 109.30507 -0.7538300000000078 109.30507 -64.07538000000001" stroke-linecap="round" />
</g>
<g transform="matrix(-1.0010544643 0 0 1 560.4706152885 319)" id="D_MMs5HV7wkOJZl0i4ld7"  >
<path style="stroke: rgb(0,0,0); stroke-width: 1; stroke-dasharray: none; stroke-linecap: butt; stroke-dashoffset: 0; stroke-linejoin: miter; stroke-miterlimit: 4; fill: rgb(255,255,255); fill-opacity: 0; fill-rule: nonzero; opacity: 1;"  transform=" translate(0, 0)" d="M 0 0" stroke-linecap="round" />
</g>
<g transform="matrix(-1.0010544643 0 0 1 429.9208505212 250.7785630153)" id="snvnw44IWOjHnLRCJuydV"  >
<path style="stroke: rgb(255,255,255); stroke-width: 5; stroke-dasharray: none; stroke-linecap: butt; stroke-dashoffset: 0; stroke-linejoin: miter; stroke-miterlimit: 4; fill: rgb(255,255,255); fill-opacity: 0; fill-rule: nonzero; opacity: 1;"  transform=" translate(0, 0)" d="M -109.30506 64.07538 C -109.30506 64.07538 -107.7974 -1.5076600000000013 -27.1378 -0.7538300000000078 C 53.5218 -7.771561172376096e-15 67.84453 -0.7538300000000078 67.84453 -0.7538300000000078 C 67.84453 -0.7538300000000078 109.30507 -0.7538300000000078 109.30507 -64.07538000000001" stroke-linecap="round" />
</g>
</svg>